<?xml version="1.0" encoding="utf-8"?>
<!-- Svg Vector Icons : http://www.onlinewebfonts.com/icon -->
<!DOCTYPE svg PUBLIC "-//W3C//DTD SVG 1.1//EN" "http://www.w3.org/Graphics/SVG/1.1/DTD/svg11.dtd">
<svg version="1.1" xmlns="http://www.w3.org/2000/svg" xmlns:xlink="http://www.w3.org/1999/xlink" x="0px" y="0px" viewBox="0 0 1000 1000" enable-background="new 0 0 1000 1000" xml:space="preserve">
<metadata> Svg Vector Icons : http://www.onlinewebfonts.com/icon </metadata>
<g><g transform="translate(0.000000,512.000000) scale(0.100000,-0.100000)"><path d="M3934.6,5011.3c-249.4-61.4-435.4-278.1-462.3-537.1l-13.4-117l-212.9-65.2C1464,3735.7,451.2,3409.6,386,3371.2c-101.7-59.5-195.7-165-247.4-278.1c-30.7-67.1-40.3-124.7-38.4-241.7c0-147.7,30.7-249.4,773-2599.1c423.9-1344.6,926.5-2942.4,1118.3-3548.5c189.9-606.1,362.5-1135.5,381.7-1173.9c53.7-105.5,163-205.3,283.9-262.8c86.3-38.4,136.2-49.9,251.3-49.9c136.2,0,251.3,34.5,2071.6,608l1927.7,610l1275.6,3.8l1275.6,5.8l95.9,47.9c122.8,59.5,237.9,174.5,297.3,297.3l47.9,95.9V731.9v3845.9l-47.9,95.9c-59.5,122.8-174.6,237.8-297.3,297.3l-95.9,47.9l-2733.3,3.8C5221.7,5022.8,3967.2,5018.9,3934.6,5011.3z M9460.7,4671.7c28.8-21.1,71-63.3,92.1-92.1l40.3-51.8v-3796v-3796l-40.3-51.8c-21.1-28.8-63.3-71-92.1-92.1c-51.8-40.3-55.6-40.3-2773.6-40.3s-2721.8,0-2773.6,40.3c-28.8,21.1-71,63.3-92.1,92.1l-40.3,51.8V730V4524l55.6,71c30.7,40.3,82.5,84.4,115.1,99.7c49.9,21.1,514.1,24.9,2758.3,21.1C9401.3,4712,9409,4712,9460.7,4671.7z M3464.6,2699.9V1368.7l-80.6,9.6c-105.5,11.5-333.8-36.5-466.1-97.8c-195.7-88.2-349.1-270.5-404.7-475.7c-34.5-132.3-34.5-377.9,1.9-531.3c44.1-180.3,166.9-400.9,299.2-539c120.8-122.7,351-283.9,539-376l109.3-53.7l5.8-1208.4l5.8-1210.4l48-95.9c59.5-122.8,174.6-237.9,297.3-297.3l95.9-47.9l970.6-9.6l970.6-9.6l-1450.1-456.5c-797.9-249.4-1475-454.6-1507.7-454.6c-78.6,0-201.4,74.8-241.7,143.9c-19.2,32.6-466.1,1434.8-995.5,3117c-529.4,1682.2-1032,3280-1116.4,3548.6c-120.8,385.5-151.5,504.5-143.9,563.9c11.5,80.6,55.6,151.5,130.4,207.2c40.3,30.7,2838.8,928.4,2909.8,934.1C3458.9,4031.1,3464.6,3753,3464.6,2699.9z"/><path d="M4249.2,4142.3c-57.5-151.5-118.9-289.6-136.2-306.9c-55.6-55.6-40.3-72.9,61.4-72.9c69.1,0,95.9,7.7,95.9,26.9c0,15.4-11.5,30.7-23,36.4c-19.2,5.8-19.2,21.1-5.8,63.3c19.2,53.7,23,55.6,151.5,55.6c130.4,0,134.3-1.9,151.5-55.6c13.4-42.2,13.4-59.5-1.9-65.2c-13.4-3.8-23-19.2-23-34.5c0-19.2,26.9-26.9,95.9-26.9c72.9,0,95.9,7.7,95.9,28.8c0,15.3-11.5,28.8-26.9,28.8c-17.3,0-69.1,111.2-138.1,297.3C4396.9,4512.5,4389.2,4514.5,4249.2,4142.3z M4479.3,4056c1.9-17.3-28.8-24.9-94-24.9h-94l46,124.7c26.9,69.1,48,132.3,49.9,140C4389.2,4315,4479.3,4082.9,4479.3,4056z"/><path d="M4249.2,3461.4c-153.5-157.3-188-228.3-153.5-318.4c30.7-80.6,105.5-118.9,186.1-94c72.9,21.1,78.6,13.4,38.4-82.5l-28.8-67.1h95.9c51.8,0,94,3.8,94,7.7c0,3.8-13.4,42.2-28.8,86.3c-26.9,80.6-26.9,80.6,15.3,65.2c134.3-46,224.4,17.3,224.4,159.2c0,80.6-9.6,94-147.7,239.8l-149.6,155.4L4249.2,3461.4z"/><path d="M6458.8,2479.3c-117-124.7-331.8-333.8-477.6-464.2c-562-508.3-707.8-667.5-828.6-913c-90.2-188-120.8-345.3-109.3-581.2c15.4-324.2,122.8-556.3,329.9-713.6c143.9-109.3,253.2-140,489.1-138.1c230.2,0,358.7,38.4,531.3,151.5c71,47.9,101.7,59.5,101.7,40.3c0-61.4-141.9-494.9-237.9-725.1l-101.7-245.5H6689h533.3l-67.1,145.8c-80.6,178.4-188,479.5-247.5,700.1l-44.1,165l118.9-80.6c170.7-115.1,308.8-153.5,539-153.5c226.3,0,337.6,32.6,479.5,140c207.1,157.3,312.7,387.5,329.9,713.6c11.5,239.8-19.2,395.1-117,588.9c-126.6,253.2-257,397.1-821,905.4c-145.8,130.4-360.6,339.5-477.6,464.2c-117,126.6-220.6,228.3-228.3,228.3S6575.9,2605.9,6458.8,2479.3z"/><path d="M8893-1443.3c0-3.9,13.4-44.1,28.8-88.2c26.9-74.8,26.9-80.6-5.8-67.1c-128.5,55.6-234-3.8-234-134.3c0-95.9,36.5-155.4,178.4-291.6l124.7-117l143.9,145.8c155.4,161.1,188,234,143.9,324.2c-38.4,80.5-115.1,115.1-189.9,88.2c-65.2-24.9-63.3-32.6-25,105.5c11.5,38.4,5.8,42.2-76.7,42.2C8933.3-1435.6,8893-1439.5,8893-1443.3z"/><path d="M8662.8-2327.5c0-15.3,11.5-28.8,26.9-28.8c17.3,0,69.1-111.3,138.1-297.3c151.5-397.1,153.4-397.1,305,0c65.2,168.8,124.7,297.3,138.1,297.3c13.4,0,24.9,13.4,24.9,28.8c0,21.1-23,28.8-95.9,28.8c-71,0-95.9-7.7-95.9-26.8c0-15.4,11.5-30.7,26.9-34.6c24.9-5.7,24.9-15.3,1.9-69l-26.9-63.3l-128.5,5.8c-124.7,5.7-130.4,7.7-147.7,63.3c-13.4,40.3-13.4,57.5,3.8,63.3c11.5,3.8,21.1,19.2,21.1,34.6c0,19.2-26.9,26.8-95.9,26.8C8685.8-2298.8,8662.8-2306.4,8662.8-2327.5z M9079-2571.2c-3.8-13.4-28.8-80.5-51.8-145.8l-44.1-122.8l-46,118.9c-63.3,168.8-61.4,172.6,53.7,172.6C9061.8-2548.1,9086.7-2555.8,9079-2571.2z"/><path d="M992.2,2939.7c-19.2-13.4-30.7-95.9-44.1-310.7c-9.6-163-26.9-314.6-38.4-337.6c-28.8-59.5-19.2-63.3,76.7-38.4c76.7,21.1,113.2,71,51.8,71c-19.2,0-28.8,21.1-28.8,67.1c0,65.2,1.9,67.1,126.6,105.5c69.1,21.1,128.5,38.4,132.3,38.4c1.9,0,19.2-23,38.4-49.9c26.9-42.2,28.8-53.7,7.7-67.1c-53.7-32.6,7.7-55.6,94-32.6c76.7,19.2,115.1,72.9,51.8,72.9c-15.3,0-115.1,109.3-220.6,245.5c-107.4,134.3-199.5,245.5-207.2,247.5C1024.8,2955,1007.5,2949.3,992.2,2939.7z M1132.2,2711.4l86.3-113.2l-95.9-28.8l-94-30.7v141.9c0,78.6,3.8,141.9,7.7,141.9C1042,2822.7,1084.2,2772.8,1132.2,2711.4z"/><path d="M1350.9,2199.3c-28.8-15.3-55.6-46-63.3-67.1c-13.4-42.2-38.4-49.9-57.5-19.2c-5.7,11.5-42.2,19.2-78.6,19.2c-84.4,0-161.1-71-161.1-147.7c0-103.6,65.2-172.6,247.4-264.7l172.6-86.3l84.4,159.2c109.3,199.5,117,228.3,90.2,310.7C1546.5,2218.4,1456.4,2254.9,1350.9,2199.3z"/></g></g>
</svg>